<svg width="414" height="134" viewBox="0 0 414 134" fill="none" xmlns="http://www.w3.org/2000/svg">
<g opacity="0.5">
<rect x="-1" y="50" width="2" height="34" fill="#0E0E0E"/>
<rect x="6" y="33.5" width="2" height="67" fill="#0E0E0E"/>
<rect x="13" y="6" width="2" height="122" fill="#0E0E0E"/>
<rect x="20" y="20" width="2" height="94" fill="#0E0E0E"/>
<rect x="27" y="39" width="2" height="56" fill="#0E0E0E"/>
<rect x="34" y="28" width="2" height="78" fill="#0E0E0E"/>
<rect x="41" y="13" width="2" height="108" fill="#0E0E0E"/>
<rect x="48" y="60" width="2" height="14" fill="#0E0E0E"/>
<rect x="55" y="37" width="2" height="60" fill="#0E0E0E"/>
<rect x="62" y="54" width="2" height="26" fill="#0E0E0E"/>
<rect x="69" width="2" height="134" fill="#0E0E0E"/>
<rect x="76" y="32" width="2" height="70" fill="#0E0E0E"/>
<rect x="83" y="53" width="2" height="28" fill="#0E0E0E"/>
<rect x="90" y="22" width="2" height="90" fill="#0E0E0E"/>
<rect x="97" y="50" width="2" height="34" fill="#0E0E0E"/>
<rect x="104" y="33.5" width="2" height="67" fill="#0E0E0E"/>
<rect x="111" y="6" width="2" height="122" fill="#0E0E0E"/>
<rect x="118" y="20" width="2" height="94" fill="#0E0E0E"/>
<rect x="125" y="39" width="2" height="56" fill="#0E0E0E"/>
<rect x="132" y="28" width="2" height="78" fill="#0E0E0E"/>
<rect x="139" y="13" width="2" height="108" fill="#0E0E0E"/>
<rect x="146" y="60" width="2" height="14" fill="#0E0E0E"/>
<rect x="153" y="37" width="2" height="60" fill="#0E0E0E"/>
<rect x="160" y="54" width="2" height="26" fill="#0E0E0E"/>
<rect x="167" y="28" width="2" height="78" fill="#0E0E0E"/>
<rect x="174" y="53" width="2" height="28" fill="#0E0E0E"/>
<rect x="181" y="32" width="2" height="70" fill="#0E0E0E"/>
<rect x="188" y="22" width="2" height="90" fill="#0E0E0E"/>
<rect x="195" y="20" width="2" height="94" fill="#0E0E0E"/>
<rect x="202" y="33.5" width="2" height="67" fill="#0E0E0E"/>
<rect x="209" y="6" width="2" height="122" fill="#0E0E0E"/>
<rect x="216" y="28" width="2" height="78" fill="#0E0E0E"/>
<rect x="223" y="13" width="2" height="108" fill="#0E0E0E"/>
<rect x="230" y="60" width="2" height="14" fill="#0E0E0E"/>
<rect x="237" y="50" width="2" height="34" fill="#0E0E0E"/>
<rect x="244" y="39" width="2" height="56" fill="#0E0E0E"/>
<rect x="251" y="37" width="2" height="60" fill="#0E0E0E"/>
<rect x="258" y="54" width="2" height="26" fill="#0E0E0E"/>
<rect x="265" y="32" width="2" height="70" fill="#0E0E0E"/>
<rect x="272" y="22" width="2" height="90" fill="#0E0E0E"/>
<rect x="279" width="2" height="134" fill="#0E0E0E"/>
<rect x="286" y="53" width="2" height="28" fill="#0E0E0E"/>
<rect x="293" y="50" width="2" height="34" fill="#0E0E0E"/>
<rect x="300" y="33.5" width="2" height="67" fill="#0E0E0E"/>
<rect x="307" y="6" width="2" height="122" fill="#0E0E0E"/>
<rect x="314" y="20" width="2" height="94" fill="#0E0E0E"/>
<rect x="321" y="39" width="2" height="56" fill="#0E0E0E"/>
<rect x="328" y="28" width="2" height="78" fill="#0E0E0E"/>
<rect x="335" y="13" width="2" height="108" fill="#0E0E0E"/>
<rect x="342" y="60" width="2" height="14" fill="#0E0E0E"/>
<rect x="349" y="37" width="2" height="60" fill="#0E0E0E"/>
<rect x="356" y="54" width="2" height="26" fill="#0E0E0E"/>
<rect x="363" width="2" height="134" fill="#0E0E0E"/>
<rect x="370" y="32" width="2" height="70" fill="#0E0E0E"/>
<rect x="377" y="53" width="2" height="28" fill="#0E0E0E"/>
<rect x="384" y="22" width="2" height="90" fill="#0E0E0E"/>
<rect x="391" y="50" width="2" height="34" fill="#0E0E0E"/>
<rect x="398" y="33.5" width="2" height="67" fill="#0E0E0E"/>
<rect x="405" y="6" width="2" height="122" fill="#0E0E0E"/>
<rect x="412" y="20" width="2" height="94" fill="#0E0E0E"/>
</g>
</svg>
