<svg width="1440" height="1154" viewBox="0 0 1440 1154" fill="none" xmlns="http://www.w3.org/2000/svg">
<line x1="545.359" y1="523.652" x2="1154.23" y2="1152.78" stroke="#797564"/>
<line x1="534.442" y1="524.233" x2="231.442" y2="1099.23" stroke="#797564"/>
<line x1="544.07" y1="520.505" x2="1533.07" y2="659.505" stroke="#797564"/>
<line x1="567.962" y1="505.501" x2="1476.96" y2="435.501" stroke="#797564"/>
<line x1="545.205" y1="523.544" x2="1477.21" y2="943.544" stroke="#797564"/>
<line x1="612.772" y1="424.555" x2="1439.77" y2="0.555067" stroke="#797564"/>
<line x1="620.861" y1="468.52" x2="1476.86" y2="221.52" stroke="#797564"/>
<line x1="514.759" y1="447.438" x2="-259.241" y2="22.4383" stroke="#797564"/>
<line x1="491.925" y1="476.494" x2="-360.075" y2="346.494" stroke="#797564"/>
<line x1="535.056" y1="524.497" x2="-367.944" y2="626.497" stroke="#797564"/>
<line x1="535.288" y1="524.408" x2="-294.712" y2="1110.41" stroke="#797564"/>
<rect x="799" y="411" width="9" height="9" fill="#797564"/>
<rect x="926" y="473" width="9" height="9" fill="#797564"/>
<rect x="1170" y="454" width="9" height="9" fill="#797564"/>
<rect x="855" y="560" width="9" height="9" fill="#797564"/>
<rect x="1086" y="592" width="9" height="9" fill="#797564"/>
<rect x="1358" y="631" width="9" height="9" fill="#797564"/>
<rect x="937" y="697" width="9" height="9" fill="#797564"/>
<rect x="831" y="820" width="9" height="9" fill="#797564"/>
<rect x="944" y="935" width="9" height="9" fill="#797564"/>
<rect x="375" y="818" width="9" height="9" fill="#797564"/>
<rect x="321" y="916" width="9" height="9" fill="#797564"/>
<rect x="270" y="1012" width="9" height="9" fill="#797564"/>
<rect x="51" y="860" width="9" height="9" fill="#797564"/>
<rect x="174" y="773" width="9" height="9" fill="#797564"/>
<rect x="305" y="682" width="9" height="9" fill="#797564"/>
<rect x="337" y="542" width="9" height="9" fill="#797564"/>
<rect x="109" y="568" width="9" height="9" fill="#797564"/>
<rect x="40" y="403" width="9" height="9" fill="#797564"/>
<rect x="208" y="429" width="9" height="9" fill="#797564"/>
<rect x="364" y="453" width="9" height="9" fill="#797564"/>
<rect x="313" y="334" width="9" height="9" fill="#797564"/>
<rect x="92" y="213" width="9" height="9" fill="#797564"/>
<rect x="1196" y="815" width="9" height="9" fill="#797564"/>
<rect x="1414" y="436" width="9" height="9" fill="#797564"/>
<rect x="897" y="272" width="9" height="9" fill="#797564"/>
<rect x="1308" y="62" width="9" height="9" fill="#797564"/>
<rect x="1026" y="346" width="9" height="9" fill="#797564"/>
<rect x="1391" y="240" width="9" height="9" fill="#797564"/>
</svg>
